<mxfile host="app.diagrams.net" agent="Mozilla/5.0 (Windows NT 10.0; Win64; x64) AppleWebKit/537.36 (KHTML, like Gecko) Chrome/136.0.0.0 Safari/537.36" version="27.1.3">
  <diagram name="Page-1" id="x_C0Y7ZuQmoFX-Lwp1rF">
    <mxGraphModel dx="2500" dy="2000" grid="1" gridSize="10" guides="1" tooltips="1" connect="1" arrows="1" fold="1" page="1" pageScale="1" pageWidth="1200" pageHeight="1600" math="0" shadow="0">
      <root>
        <mxCell id="0" />
        <mxCell id="1" parent="0" />
        
        <!-- Khoa -->
        <mxCell id="khoas" value="khoas" style="swimlane;fontStyle=1;align=center;verticalAlign=top;childLayout=stackLayout;horizontal=1;startSize=26;horizontalStack=0;resizeParent=1;resizeParentMax=0;resizeLast=0;collapsible=1;marginBottom=0;whiteSpace=wrap;html=1;" vertex="1" parent="1">
          <mxGeometry x="50" y="50" width="120" height="160" as="geometry" />
        </mxCell>
        <mxCell id="khoas-attr" value="+ id: string&#xa;+ ten: string&#xa;+ able: boolean" style="text;strokeColor=none;fillColor=none;align=left;verticalAlign=top;spacingLeft=4;spacingRight=4;overflow=hidden;rotatable=0;points=[[0,0.5],[1,0.5]];portConstraint=eastwest;whiteSpace=wrap;html=1;" vertex="1" parent="khoas">
          <mxGeometry y="26" width="120" height="54" as="geometry" />
        </mxCell>
        <mxCell id="khoas-line" value="" style="line;strokeWidth=1;fillColor=none;align=left;verticalAlign=middle;spacingTop=-1;spacingLeft=3;spacingRight=3;rotatable=0;labelPosition=right;points=[];portConstraint=eastwest;strokeColor=inherit;" vertex="1" parent="khoas">
          <mxGeometry y="80" width="120" height="8" as="geometry" />
        </mxCell>
        <mxCell id="khoas-methods" value="+ boMons()&#xa;+ lopHocPhans()&#xa;+ add()&#xa;+ update()&#xa;+ delete()" style="text;strokeColor=none;fillColor=none;align=left;verticalAlign=top;spacingLeft=4;spacingRight=4;overflow=hidden;rotatable=0;points=[[0,0.5],[1,0.5]];portConstraint=eastwest;whiteSpace=wrap;html=1;" vertex="1" parent="khoas">
          <mxGeometry y="88" width="120" height="72" as="geometry" />
        </mxCell>

        <!-- BoMon -->
        <mxCell id="bo_mons" value="bo_mons" style="swimlane;fontStyle=1;align=center;verticalAlign=top;childLayout=stackLayout;horizontal=1;startSize=26;horizontalStack=0;resizeParent=1;resizeParentMax=0;resizeLast=0;collapsible=1;marginBottom=0;whiteSpace=wrap;html=1;" vertex="1" parent="1">
          <mxGeometry x="250" y="50" width="120" height="180" as="geometry" />
        </mxCell>
        <mxCell id="bo_mons-attr" value="+ id: string&#xa;+ ten: string&#xa;+ id_khoa: string&#xa;+ able: boolean" style="text;strokeColor=none;fillColor=none;align=left;verticalAlign=top;spacingLeft=4;spacingRight=4;overflow=hidden;rotatable=0;points=[[0,0.5],[1,0.5]];portConstraint=eastwest;whiteSpace=wrap;html=1;" vertex="1" parent="bo_mons">
          <mxGeometry y="26" width="120" height="64" as="geometry" />
        </mxCell>
        <mxCell id="bo_mons-line" value="" style="line;strokeWidth=1;fillColor=none;align=left;verticalAlign=middle;spacingTop=-1;spacingLeft=3;spacingRight=3;rotatable=0;labelPosition=right;points=[];portConstraint=eastwest;strokeColor=inherit;" vertex="1" parent="bo_mons">
          <mxGeometry y="90" width="120" height="8" as="geometry" />
        </mxCell>
        <mxCell id="bo_mons-methods" value="+ khoa()&#xa;+ hocPhans()&#xa;+ vienChucs()&#xa;+ add()&#xa;+ update()&#xa;+ delete()" style="text;strokeColor=none;fillColor=none;align=left;verticalAlign=top;spacingLeft=4;spacingRight=4;overflow=hidden;rotatable=0;points=[[0,0.5],[1,0.5]];portConstraint=eastwest;whiteSpace=wrap;html=1;" vertex="1" parent="bo_mons">
          <mxGeometry y="98" width="120" height="82" as="geometry" />
        </mxCell>

        <!-- HocPhan -->
        <mxCell id="hoc_phans" value="hoc_phans" style="swimlane;fontStyle=1;align=center;verticalAlign=top;childLayout=stackLayout;horizontal=1;startSize=26;horizontalStack=0;resizeParent=1;resizeParentMax=0;resizeLast=0;collapsible=1;marginBottom=0;whiteSpace=wrap;html=1;" vertex="1" parent="1">
          <mxGeometry x="450" y="30" width="140" height="220" as="geometry" />
        </mxCell>
        <mxCell id="hoc_phans-attr" value="+ id: string&#xa;+ ten: string&#xa;+ so_tin_chi: int&#xa;+ id_bo_mon: string&#xa;+ id_bac_dao_tao: string&#xa;+ able: boolean" style="text;strokeColor=none;fillColor=none;align=left;verticalAlign=top;spacingLeft=4;spacingRight=4;overflow=hidden;rotatable=0;points=[[0,0.5],[1,0.5]];portConstraint=eastwest;whiteSpace=wrap;html=1;" vertex="1" parent="hoc_phans">
          <mxGeometry y="26" width="140" height="94" as="geometry" />
        </mxCell>
        <mxCell id="hoc_phans-line" value="" style="line;strokeWidth=1;fillColor=none;align=left;verticalAlign=middle;spacingTop=-1;spacingLeft=3;spacingRight=3;rotatable=0;labelPosition=right;points=[];portConstraint=eastwest;strokeColor=inherit;" vertex="1" parent="hoc_phans">
          <mxGeometry y="120" width="140" height="8" as="geometry" />
        </mxCell>
        <mxCell id="hoc_phans-methods" value="+ boMon()&#xa;+ bacDaoTao()&#xa;+ deThis()&#xa;+ chuongs()&#xa;+ cauHois()&#xa;+ chuanDauRas()&#xa;+ add()&#xa;+ update()&#xa;+ delete()" style="text;strokeColor=none;fillColor=none;align=left;verticalAlign=top;spacingLeft=4;spacingRight=4;overflow=hidden;rotatable=0;points=[[0,0.5],[1,0.5]];portConstraint=eastwest;whiteSpace=wrap;html=1;" vertex="1" parent="hoc_phans">
          <mxGeometry y="128" width="140" height="92" as="geometry" />
        </mxCell>

        <!-- User -->
        <mxCell id="users" value="users" style="swimlane;fontStyle=1;align=center;verticalAlign=top;childLayout=stackLayout;horizontal=1;startSize=26;horizontalStack=0;resizeParent=1;resizeParentMax=0;resizeLast=0;collapsible=1;marginBottom=0;whiteSpace=wrap;html=1;" vertex="1" parent="1">
          <mxGeometry x="50" y="300" width="140" height="240" as="geometry" />
        </mxCell>
        <mxCell id="users-attr" value="+ id: string&#xa;+ name: string&#xa;+ email: string&#xa;+ password: string&#xa;+ sdt: string&#xa;+ dia_chi: string&#xa;+ ngay_sinh: date&#xa;+ gioi_tinh: string&#xa;+ id_bo_mon: string&#xa;+ id_chuc_vu: string&#xa;+ able: boolean" style="text;strokeColor=none;fillColor=none;align=left;verticalAlign=top;spacingLeft=4;spacingRight=4;overflow=hidden;rotatable=0;points=[[0,0.5],[1,0.5]];portConstraint=eastwest;whiteSpace=wrap;html=1;" vertex="1" parent="users">
          <mxGeometry y="26" width="140" height="154" as="geometry" />
        </mxCell>
        <mxCell id="users-line" value="" style="line;strokeWidth=1;fillColor=none;align=left;verticalAlign=middle;spacingTop=-1;spacingLeft=3;spacingRight=3;rotatable=0;labelPosition=right;points=[];portConstraint=eastwest;strokeColor=inherit;" vertex="1" parent="users">
          <mxGeometry y="180" width="140" height="8" as="geometry" />
        </mxCell>
        <mxCell id="users-methods" value="+ boMon()&#xa;+ chucVu()&#xa;+ lopHocPhans()&#xa;+ dsHops()" style="text;strokeColor=none;fillColor=none;align=left;verticalAlign=top;spacingLeft=4;spacingRight=4;overflow=hidden;rotatable=0;points=[[0,0.5],[1,0.5]];portConstraint=eastwest;whiteSpace=wrap;html=1;" vertex="1" parent="users">
          <mxGeometry y="188" width="140" height="52" as="geometry" />
        </mxCell>

        <!-- CauHoi -->
        <mxCell id="cau_hois" value="cau_hois" style="swimlane;fontStyle=1;align=center;verticalAlign=top;childLayout=stackLayout;horizontal=1;startSize=26;horizontalStack=0;resizeParent=1;resizeParentMax=0;resizeLast=0;collapsible=1;marginBottom=0;whiteSpace=wrap;html=1;" vertex="1" parent="1">
          <mxGeometry x="700" y="300" width="150" height="220" as="geometry" />
        </mxCell>
        <mxCell id="cau_hois-attr" value="+ id: int&#xa;+ cau_hoi: text&#xa;+ id_ct_ds_dang_ky: int&#xa;+ id_chuan_dau_ra: int&#xa;+ id_chuong: int&#xa;+ diem: float&#xa;+ phan_loai: string&#xa;+ muc_do: string&#xa;+ able: boolean" style="text;strokeColor=none;fillColor=none;align=left;verticalAlign=top;spacingLeft=4;spacingRight=4;overflow=hidden;rotatable=0;points=[[0,0.5],[1,0.5]];portConstraint=eastwest;whiteSpace=wrap;html=1;" vertex="1" parent="cau_hois">
          <mxGeometry y="26" width="150" height="134" as="geometry" />
        </mxCell>
        <mxCell id="cau_hois-line" value="" style="line;strokeWidth=1;fillColor=none;align=left;verticalAlign=middle;spacingTop=-1;spacingLeft=3;spacingRight=3;rotatable=0;labelPosition=right;points=[];portConstraint=eastwest;strokeColor=inherit;" vertex="1" parent="cau_hois">
          <mxGeometry y="160" width="150" height="8" as="geometry" />
        </mxCell>
        <mxCell id="cau_hois-methods" value="+ chuong()&#xa;+ chuanDauRa()&#xa;+ ctDSDangKy()&#xa;+ dapAns()" style="text;strokeColor=none;fillColor=none;align=left;verticalAlign=top;spacingLeft=4;spacingRight=4;overflow=hidden;rotatable=0;points=[[0,0.5],[1,0.5]];portConstraint=eastwest;whiteSpace=wrap;html=1;" vertex="1" parent="cau_hois">
          <mxGeometry y="168" width="150" height="52" as="geometry" />
        </mxCell>

        <!-- DeThi -->
        <mxCell id="de_this" value="de_this" style="swimlane;fontStyle=1;align=center;verticalAlign=top;childLayout=stackLayout;horizontal=1;startSize=26;horizontalStack=0;resizeParent=1;resizeParentMax=0;resizeLast=0;collapsible=1;marginBottom=0;whiteSpace=wrap;html=1;" vertex="1" parent="1">
          <mxGeometry x="450" y="300" width="140" height="200" as="geometry" />
        </mxCell>
        <mxCell id="de_this-attr" value="+ id: string&#xa;+ id_hoc_phan: string&#xa;+ id_lop_hoc_phan: int&#xa;+ hoc_ky: int&#xa;+ nam: int&#xa;+ ngay_thi: datetime&#xa;+ loai: string&#xa;+ su_dung_tai_lieu: bool&#xa;+ able: boolean" style="text;strokeColor=none;fillColor=none;align=left;verticalAlign=top;spacingLeft=4;spacingRight=4;overflow=hidden;rotatable=0;points=[[0,0.5],[1,0.5]];portConstraint=eastwest;whiteSpace=wrap;html=1;" vertex="1" parent="de_this">
          <mxGeometry y="26" width="140" height="124" as="geometry" />
        </mxCell>
        <mxCell id="de_this-line" value="" style="line;strokeWidth=1;fillColor=none;align=left;verticalAlign=middle;spacingTop=-1;spacingLeft=3;spacingRight=3;rotatable=0;labelPosition=right;points=[];portConstraint=eastwest;strokeColor=inherit;" vertex="1" parent="de_this">
          <mxGeometry y="150" width="140" height="8" as="geometry" />
        </mxCell>
        <mxCell id="de_this-methods" value="+ hocPhan()&#xa;+ lopHocPhan()&#xa;+ ctDeThi()" style="text;strokeColor=none;fillColor=none;align=left;verticalAlign=top;spacingLeft=4;spacingRight=4;overflow=hidden;rotatable=0;points=[[0,0.5],[1,0.5]];portConstraint=eastwest;whiteSpace=wrap;html=1;" vertex="1" parent="de_this">
          <mxGeometry y="158" width="140" height="42" as="geometry" />
        </mxCell>

        <!-- Chuong -->
        <mxCell id="chuongs" value="chuongs" style="swimlane;fontStyle=1;align=center;verticalAlign=top;childLayout=stackLayout;horizontal=1;startSize=26;horizontalStack=0;resizeParent=1;resizeParentMax=0;resizeLast=0;collapsible=1;marginBottom=0;whiteSpace=wrap;html=1;" vertex="1" parent="1">
          <mxGeometry x="250" y="300" width="140" height="170" as="geometry" />
        </mxCell>
        <mxCell id="chuongs-attr" value="+ id: int&#xa;+ ten: string&#xa;+ id_hoc_phan: string&#xa;+ able: boolean" style="text;strokeColor=none;fillColor=none;align=left;verticalAlign=top;spacingLeft=4;spacingRight=4;overflow=hidden;rotatable=0;points=[[0,0.5],[1,0.5]];portConstraint=eastwest;whiteSpace=wrap;html=1;" vertex="1" parent="chuongs">
          <mxGeometry y="26" width="140" height="64" as="geometry" />
        </mxCell>
        <mxCell id="chuongs-line" value="" style="line;strokeWidth=1;fillColor=none;align=left;verticalAlign=middle;spacingTop=-1;spacingLeft=3;spacingRight=3;rotatable=0;labelPosition=right;points=[];portConstraint=eastwest;strokeColor=inherit;" vertex="1" parent="chuongs">
          <mxGeometry y="90" width="140" height="8" as="geometry" />
        </mxCell>
        <mxCell id="chuongs-methods" value="+ hocPhan()&#xa;+ maTrans()&#xa;+ cauHois()&#xa;+ chuanDauRas()&#xa;+ add()&#xa;+ update()&#xa;+ delete()" style="text;strokeColor=none;fillColor=none;align=left;verticalAlign=top;spacingLeft=4;spacingRight=4;overflow=hidden;rotatable=0;points=[[0,0.5],[1,0.5]];portConstraint=eastwest;whiteSpace=wrap;html=1;" vertex="1" parent="chuongs">
          <mxGeometry y="98" width="140" height="72" as="geometry" />
        </mxCell>

        <!-- ChuanDauRa -->
        <mxCell id="chuan_dau_ras" value="chuan_dau_ras" style="swimlane;fontStyle=1;align=center;verticalAlign=top;childLayout=stackLayout;horizontal=1;startSize=26;horizontalStack=0;resizeParent=1;resizeParentMax=0;resizeLast=0;collapsible=1;marginBottom=0;whiteSpace=wrap;html=1;" vertex="1" parent="1">
          <mxGeometry x="700" y="50" width="140" height="180" as="geometry" />
        </mxCell>
        <mxCell id="chuan_dau_ras-attr" value="+ id: int&#xa;+ ten: string&#xa;+ noi_dung: text&#xa;+ id_hoc_phan: string&#xa;+ able: boolean" style="text;strokeColor=none;fillColor=none;align=left;verticalAlign=top;spacingLeft=4;spacingRight=4;overflow=hidden;rotatable=0;points=[[0,0.5],[1,0.5]];portConstraint=eastwest;whiteSpace=wrap;html=1;" vertex="1" parent="chuan_dau_ras">
          <mxGeometry y="26" width="140" height="74" as="geometry" />
        </mxCell>
        <mxCell id="chuan_dau_ras-line" value="" style="line;strokeWidth=1;fillColor=none;align=left;verticalAlign=middle;spacingTop=-1;spacingLeft=3;spacingRight=3;rotatable=0;labelPosition=right;points=[];portConstraint=eastwest;strokeColor=inherit;" vertex="1" parent="chuan_dau_ras">
          <mxGeometry y="100" width="140" height="8" as="geometry" />
        </mxCell>
        <mxCell id="chuan_dau_ras-methods" value="+ hocPhan()&#xa;+ maTrans()&#xa;+ cauHois()&#xa;+ add()&#xa;+ update()&#xa;+ delete()" style="text;strokeColor=none;fillColor=none;align=left;verticalAlign=top;spacingLeft=4;spacingRight=4;overflow=hidden;rotatable=0;points=[[0,0.5],[1,0.5]];portConstraint=eastwest;whiteSpace=wrap;html=1;" vertex="1" parent="chuan_dau_ras">
          <mxGeometry y="108" width="140" height="72" as="geometry" />
        </mxCell>

        <!-- BienBanHop -->
        <mxCell id="bien_ban_hops" value="bien_ban_hops" style="swimlane;fontStyle=1;align=center;verticalAlign=top;childLayout=stackLayout;horizontal=1;startSize=26;horizontalStack=0;resizeParent=1;resizeParentMax=0;resizeLast=0;collapsible=1;marginBottom=0;whiteSpace=wrap;html=1;" vertex="1" parent="1">
          <mxGeometry x="50" y="600" width="150" height="200" as="geometry" />
        </mxCell>
        <mxCell id="bien_ban_hops-attr" value="+ id: int&#xa;+ cap: string&#xa;+ dia_diem: string&#xa;+ noi_dung: text&#xa;+ thoi_gian: datetime&#xa;+ id_ct_ds_dang_ky: int&#xa;+ id_ds_dang_ky: int&#xa;+ able: boolean" style="text;strokeColor=none;fillColor=none;align=left;verticalAlign=top;spacingLeft=4;spacingRight=4;overflow=hidden;rotatable=0;points=[[0,0.5],[1,0.5]];portConstraint=eastwest;whiteSpace=wrap;html=1;" vertex="1" parent="bien_ban_hops">
          <mxGeometry y="26" width="150" height="114" as="geometry" />
        </mxCell>
        <mxCell id="bien_ban_hops-line" value="" style="line;strokeWidth=1;fillColor=none;align=left;verticalAlign=middle;spacingTop=-1;spacingLeft=3;spacingRight=3;rotatable=0;labelPosition=right;points=[];portConstraint=eastwest;strokeColor=inherit;" vertex="1" parent="bien_ban_hops">
          <mxGeometry y="140" width="150" height="8" as="geometry" />
        </mxCell>
        <mxCell id="bien_ban_hops-methods" value="+ ctDSDangKy()&#xa;+ dsDangKy()&#xa;+ dsHop()" style="text;strokeColor=none;fillColor=none;align=left;verticalAlign=top;spacingLeft=4;spacingRight=4;overflow=hidden;rotatable=0;points=[[0,0.5],[1,0.5]];portConstraint=eastwest;whiteSpace=wrap;html=1;" vertex="1" parent="bien_ban_hops">
          <mxGeometry y="148" width="150" height="52" as="geometry" />
        </mxCell>

        <!-- CTDSDangKy -->
        <mxCell id="ct_ds_dang_kies" value="ct_ds_dang_kies" style="swimlane;fontStyle=1;align=center;verticalAlign=top;childLayout=stackLayout;horizontal=1;startSize=26;horizontalStack=0;resizeParent=1;resizeParentMax=0;resizeLast=0;collapsible=1;marginBottom=0;whiteSpace=wrap;html=1;" vertex="1" parent="1">
          <mxGeometry x="250" y="600" width="150" height="220" as="geometry" />
        </mxCell>
        <mxCell id="ct_ds_dang_kies-attr" value="+ id: int&#xa;+ ten: string&#xa;+ id_ds_dang_ky: int&#xa;+ id_hoc_phan: string&#xa;+ trang_thai: string&#xa;+ loai_ngan_hang: string&#xa;+ so_luong: int&#xa;+ hinh_thuc_thi: string&#xa;+ able: boolean" style="text;strokeColor=none;fillColor=none;align=left;verticalAlign=top;spacingLeft=4;spacingRight=4;overflow=hidden;rotatable=0;points=[[0,0.5],[1,0.5]];portConstraint=eastwest;whiteSpace=wrap;html=1;" vertex="1" parent="ct_ds_dang_kies">
          <mxGeometry y="26" width="150" height="134" as="geometry" />
        </mxCell>
        <mxCell id="ct_ds_dang_kies-line" value="" style="line;strokeWidth=1;fillColor=none;align=left;verticalAlign=middle;spacingTop=-1;spacingLeft=3;spacingRight=3;rotatable=0;labelPosition=right;points=[];portConstraint=eastwest;strokeColor=inherit;" vertex="1" parent="ct_ds_dang_kies">
          <mxGeometry y="160" width="150" height="8" as="geometry" />
        </mxCell>
        <mxCell id="ct_ds_dang_kies-methods" value="+ dsDangKy()&#xa;+ hocPhan()&#xa;+ dsGVBienSoans()&#xa;+ cauHois()&#xa;+ bienBanHop()" style="text;strokeColor=none;fillColor=none;align=left;verticalAlign=top;spacingLeft=4;spacingRight=4;overflow=hidden;rotatable=0;points=[[0,0.5],[1,0.5]];portConstraint=eastwest;whiteSpace=wrap;html=1;" vertex="1" parent="ct_ds_dang_kies">
          <mxGeometry y="168" width="150" height="52" as="geometry" />
        </mxCell>

        <!-- DSDangKy -->
        <mxCell id="ds_dang_kies" value="ds_dang_kies" style="swimlane;fontStyle=1;align=center;verticalAlign=top;childLayout=stackLayout;horizontal=1;startSize=26;horizontalStack=0;resizeParent=1;resizeParentMax=0;resizeLast=0;collapsible=1;marginBottom=0;whiteSpace=wrap;html=1;" vertex="1" parent="1">
          <mxGeometry x="450" y="600" width="140" height="170" as="geometry" />
        </mxCell>
        <mxCell id="ds_dang_kies-attr" value="+ id: int&#xa;+ id_bo_mon: string&#xa;+ hoc_ki: int&#xa;+ nam_hoc: string&#xa;+ able: boolean" style="text;strokeColor=none;fillColor=none;align=left;verticalAlign=top;spacingLeft=4;spacingRight=4;overflow=hidden;rotatable=0;points=[[0,0.5],[1,0.5]];portConstraint=eastwest;whiteSpace=wrap;html=1;" vertex="1" parent="ds_dang_kies">
          <mxGeometry y="26" width="140" height="74" as="geometry" />
        </mxCell>
        <mxCell id="ds_dang_kies-line" value="" style="line;strokeWidth=1;fillColor=none;align=left;verticalAlign=middle;spacingTop=-1;spacingLeft=3;spacingRight=3;rotatable=0;labelPosition=right;points=[];portConstraint=eastwest;strokeColor=inherit;" vertex="1" parent="ds_dang_kies">
          <mxGeometry y="100" width="140" height="8" as="geometry" />
        </mxCell>
        <mxCell id="ds_dang_kies-methods" value="+ boMon()&#xa;+ ctDSDangKies()&#xa;+ add()&#xa;+ update()&#xa;+ delete()" style="text;strokeColor=none;fillColor=none;align=left;verticalAlign=top;spacingLeft=4;spacingRight=4;overflow=hidden;rotatable=0;points=[[0,0.5],[1,0.5]];portConstraint=eastwest;whiteSpace=wrap;html=1;" vertex="1" parent="ds_dang_kies">
          <mxGeometry y="108" width="140" height="62" as="geometry" />
        </mxCell>

        <!-- BacDaoTao -->
        <mxCell id="bac_dao_taos" value="bac_dao_taos" style="swimlane;fontStyle=1;align=center;verticalAlign=top;childLayout=stackLayout;horizontal=1;startSize=26;horizontalStack=0;resizeParent=1;resizeParentMax=0;resizeLast=0;collapsible=1;marginBottom=0;whiteSpace=wrap;html=1;" vertex="1" parent="1">
          <mxGeometry x="900" y="50" width="120" height="150" as="geometry" />
        </mxCell>
        <mxCell id="bac_dao_taos-attr" value="+ id: string&#xa;+ ten: string&#xa;+ able: boolean" style="text;strokeColor=none;fillColor=none;align=left;verticalAlign=top;spacingLeft=4;spacingRight=4;overflow=hidden;rotatable=0;points=[[0,0.5],[1,0.5]];portConstraint=eastwest;whiteSpace=wrap;html=1;" vertex="1" parent="bac_dao_taos">
          <mxGeometry y="26" width="120" height="54" as="geometry" />
        </mxCell>
        <mxCell id="bac_dao_taos-line" value="" style="line;strokeWidth=1;fillColor=none;align=left;verticalAlign=middle;spacingTop=-1;spacingLeft=3;spacingRight=3;rotatable=0;labelPosition=right;points=[];portConstraint=eastwest;strokeColor=inherit;" vertex="1" parent="bac_dao_taos">
          <mxGeometry y="80" width="120" height="8" as="geometry" />
        </mxCell>
        <mxCell id="bac_dao_taos-methods" value="+ hocPhans()&#xa;+ add()&#xa;+ update()&#xa;+ delete()" style="text;strokeColor=none;fillColor=none;align=left;verticalAlign=top;spacingLeft=4;spacingRight=4;overflow=hidden;rotatable=0;points=[[0,0.5],[1,0.5]];portConstraint=eastwest;whiteSpace=wrap;html=1;" vertex="1" parent="bac_dao_taos">
          <mxGeometry y="88" width="120" height="62" as="geometry" />
        </mxCell>

        <!-- ChucVu -->
        <mxCell id="chuc_vus" value="chuc_vus" style="swimlane;fontStyle=1;align=center;verticalAlign=top;childLayout=stackLayout;horizontal=1;startSize=26;horizontalStack=0;resizeParent=1;resizeParentMax=0;resizeLast=0;collapsible=1;marginBottom=0;whiteSpace=wrap;html=1;" vertex="1" parent="1">
          <mxGeometry x="50" y="580" width="120" height="150" as="geometry" />
        </mxCell>
        <mxCell id="chuc_vus-attr" value="+ id: string&#xa;+ ten: string&#xa;+ able: boolean" style="text;strokeColor=none;fillColor=none;align=left;verticalAlign=top;spacingLeft=4;spacingRight=4;overflow=hidden;rotatable=0;points=[[0,0.5],[1,0.5]];portConstraint=eastwest;whiteSpace=wrap;html=1;" vertex="1" parent="chuc_vus">
          <mxGeometry y="26" width="120" height="54" as="geometry" />
        </mxCell>
        <mxCell id="chuc_vus-line" value="" style="line;strokeWidth=1;fillColor=none;align=left;verticalAlign=middle;spacingTop=-1;spacingLeft=3;spacingRight=3;rotatable=0;labelPosition=right;points=[];portConstraint=eastwest;strokeColor=inherit;" vertex="1" parent="chuc_vus">
          <mxGeometry y="80" width="120" height="8" as="geometry" />
        </mxCell>
        <mxCell id="chuc_vus-methods" value="+ vienChucs()&#xa;+ add()&#xa;+ update()&#xa;+ delete()" style="text;strokeColor=none;fillColor=none;align=left;verticalAlign=top;spacingLeft=4;spacingRight=4;overflow=hidden;rotatable=0;points=[[0,0.5],[1,0.5]];portConstraint=eastwest;whiteSpace=wrap;html=1;" vertex="1" parent="chuc_vus">
          <mxGeometry y="88" width="120" height="62" as="geometry" />
        </mxCell>

        <!-- DapAn -->
        <mxCell id="dap_ans" value="dap_ans" style="swimlane;fontStyle=1;align=center;verticalAlign=top;childLayout=stackLayout;horizontal=1;startSize=26;horizontalStack=0;resizeParent=1;resizeParentMax=0;resizeLast=0;collapsible=1;marginBottom=0;whiteSpace=wrap;html=1;" vertex="1" parent="1">
          <mxGeometry x="900" y="300" width="140" height="180" as="geometry" />
        </mxCell>
        <mxCell id="dap_ans-attr" value="+ id: int&#xa;+ id_cau_hoi: int&#xa;+ dap_an: text&#xa;+ trang_thai: boolean&#xa;+ diem: float&#xa;+ able: boolean" style="text;strokeColor=none;fillColor=none;align=left;verticalAlign=top;spacingLeft=4;spacingRight=4;overflow=hidden;rotatable=0;points=[[0,0.5],[1,0.5]];portConstraint=eastwest;whiteSpace=wrap;html=1;" vertex="1" parent="dap_ans">
          <mxGeometry y="26" width="140" height="94" as="geometry" />
        </mxCell>
        <mxCell id="dap_ans-line" value="" style="line;strokeWidth=1;fillColor=none;align=left;verticalAlign=middle;spacingTop=-1;spacingLeft=3;spacingRight=3;rotatable=0;labelPosition=right;points=[];portConstraint=eastwest;strokeColor=inherit;" vertex="1" parent="dap_ans">
          <mxGeometry y="120" width="140" height="8" as="geometry" />
        </mxCell>
        <mxCell id="dap_ans-methods" value="+ cauHoi()&#xa;+ add()&#xa;+ update()&#xa;+ delete()" style="text;strokeColor=none;fillColor=none;align=left;verticalAlign=top;spacingLeft=4;spacingRight=4;overflow=hidden;rotatable=0;points=[[0,0.5],[1,0.5]];portConstraint=eastwest;whiteSpace=wrap;html=1;" vertex="1" parent="dap_ans">
          <mxGeometry y="128" width="140" height="52" as="geometry" />
        </mxCell>

        <!-- DSGVBienSoan -->
        <mxCell id="ds_gv_bien_soans" value="ds_gv_bien_soans" style="swimlane;fontStyle=1;align=center;verticalAlign=top;childLayout=stackLayout;horizontal=1;startSize=26;horizontalStack=0;resizeParent=1;resizeParentMax=0;resizeLast=0;collapsible=1;marginBottom=0;whiteSpace=wrap;html=1;" vertex="1" parent="1">
          <mxGeometry x="450" y="850" width="150" height="160" as="geometry" />
        </mxCell>
        <mxCell id="ds_gv_bien_soans-attr" value="+ id_ct_ds_dang_ky: int&#xa;+ id_vien_chuc: string&#xa;+ so_gio: float" style="text;strokeColor=none;fillColor=none;align=left;verticalAlign=top;spacingLeft=4;spacingRight=4;overflow=hidden;rotatable=0;points=[[0,0.5],[1,0.5]];portConstraint=eastwest;whiteSpace=wrap;html=1;" vertex="1" parent="ds_gv_bien_soans">
          <mxGeometry y="26" width="150" height="54" as="geometry" />
        </mxCell>
        <mxCell id="ds_gv_bien_soans-line" value="" style="line;strokeWidth=1;fillColor=none;align=left;verticalAlign=middle;spacingTop=-1;spacingLeft=3;spacingRight=3;rotatable=0;labelPosition=right;points=[];portConstraint=eastwest;strokeColor=inherit;" vertex="1" parent="ds_gv_bien_soans">
          <mxGeometry y="80" width="150" height="8" as="geometry" />
        </mxCell>
        <mxCell id="ds_gv_bien_soans-methods" value="+ ctDSDangKy()&#xa;+ vienChuc()&#xa;+ add()&#xa;+ update()&#xa;+ delete()" style="text;strokeColor=none;fillColor=none;align=left;verticalAlign=top;spacingLeft=4;spacingRight=4;overflow=hidden;rotatable=0;points=[[0,0.5],[1,0.5]];portConstraint=eastwest;whiteSpace=wrap;html=1;" vertex="1" parent="ds_gv_bien_soans">
          <mxGeometry y="88" width="150" height="72" as="geometry" />
        </mxCell>

        <!-- NhiemVu -->
        <mxCell id="nhiem_vus" value="nhiem_vus" style="swimlane;fontStyle=1;align=center;verticalAlign=top;childLayout=stackLayout;horizontal=1;startSize=26;horizontalStack=0;resizeParent=1;resizeParentMax=0;resizeLast=0;collapsible=1;marginBottom=0;whiteSpace=wrap;html=1;" vertex="1" parent="1">
          <mxGeometry x="250" y="850" width="120" height="150" as="geometry" />
        </mxCell>
        <mxCell id="nhiem_vus-attr" value="+ id: int&#xa;+ ten: string&#xa;+ able: boolean" style="text;strokeColor=none;fillColor=none;align=left;verticalAlign=top;spacingLeft=4;spacingRight=4;overflow=hidden;rotatable=0;points=[[0,0.5],[1,0.5]];portConstraint=eastwest;whiteSpace=wrap;html=1;" vertex="1" parent="nhiem_vus">
          <mxGeometry y="26" width="120" height="54" as="geometry" />
        </mxCell>
        <mxCell id="nhiem_vus-line" value="" style="line;strokeWidth=1;fillColor=none;align=left;verticalAlign=middle;spacingTop=-1;spacingLeft=3;spacingRight=3;rotatable=0;labelPosition=right;points=[];portConstraint=eastwest;strokeColor=inherit;" vertex="1" parent="nhiem_vus">
          <mxGeometry y="80" width="120" height="8" as="geometry" />
        </mxCell>
        <mxCell id="nhiem_vus-methods" value="+ dsHops()&#xa;+ add()&#xa;+ update()&#xa;+ delete()" style="text;strokeColor=none;fillColor=none;align=left;verticalAlign=top;spacingLeft=4;spacingRight=4;overflow=hidden;rotatable=0;points=[[0,0.5],[1,0.5]];portConstraint=eastwest;whiteSpace=wrap;html=1;" vertex="1" parent="nhiem_vus">
          <mxGeometry y="88" width="120" height="62" as="geometry" />
        </mxCell>

        <!-- DSHop -->
        <mxCell id="ds_hops" value="ds_hops" style="swimlane;fontStyle=1;align=center;verticalAlign=top;childLayout=stackLayout;horizontal=1;startSize=26;horizontalStack=0;resizeParent=1;resizeParentMax=0;resizeLast=0;collapsible=1;marginBottom=0;whiteSpace=wrap;html=1;" vertex="1" parent="1">
          <mxGeometry x="50" y="850" width="150" height="200" as="geometry" />
        </mxCell>
        <mxCell id="ds_hops-attr" value="+ id: int&#xa;+ id_bien_ban_hop: int&#xa;+ id_nhiem_vu: int&#xa;+ id_vien_chuc: string&#xa;+ so_gio: float&#xa;+ able: boolean" style="text;strokeColor=none;fillColor=none;align=left;verticalAlign=top;spacingLeft=4;spacingRight=4;overflow=hidden;rotatable=0;points=[[0,0.5],[1,0.5]];portConstraint=eastwest;whiteSpace=wrap;html=1;" vertex="1" parent="ds_hops">
          <mxGeometry y="26" width="150" height="94" as="geometry" />
        </mxCell>
        <mxCell id="ds_hops-line" value="" style="line;strokeWidth=1;fillColor=none;align=left;verticalAlign=middle;spacingTop=-1;spacingLeft=3;spacingRight=3;rotatable=0;labelPosition=right;points=[];portConstraint=eastwest;strokeColor=inherit;" vertex="1" parent="ds_hops">
          <mxGeometry y="120" width="150" height="8" as="geometry" />
        </mxCell>
        <mxCell id="ds_hops-methods" value="+ bienBanHop()&#xa;+ nhiemVu()&#xa;+ vienChuc()&#xa;+ add()&#xa;+ update()&#xa;+ delete()" style="text;strokeColor=none;fillColor=none;align=left;verticalAlign=top;spacingLeft=4;spacingRight=4;overflow=hidden;rotatable=0;points=[[0,0.5],[1,0.5]];portConstraint=eastwest;whiteSpace=wrap;html=1;" vertex="1" parent="ds_hops">
          <mxGeometry y="128" width="150" height="72" as="geometry" />
        </mxCell>

        <!-- MaTran -->
        <mxCell id="ma_trans" value="ma_trans" style="swimlane;fontStyle=1;align=center;verticalAlign=top;childLayout=stackLayout;horizontal=1;startSize=26;horizontalStack=0;resizeParent=1;resizeParentMax=0;resizeLast=0;collapsible=1;marginBottom=0;whiteSpace=wrap;html=1;" vertex="1" parent="1">
          <mxGeometry x="900" y="550" width="140" height="220" as="geometry" />
        </mxCell>
        <mxCell id="ma_trans-attr" value="+ id: int&#xa;+ id_chuan_dau_ra: int&#xa;+ id_chuong: int&#xa;+ diem: float&#xa;+ so_cau_de: int&#xa;+ so_cau_tb: int&#xa;+ so_cau_kho: int&#xa;+ loai_ky: string&#xa;+ able: boolean" style="text;strokeColor=none;fillColor=none;align=left;verticalAlign=top;spacingLeft=4;spacingRight=4;overflow=hidden;rotatable=0;points=[[0,0.5],[1,0.5]];portConstraint=eastwest;whiteSpace=wrap;html=1;" vertex="1" parent="ma_trans">
          <mxGeometry y="26" width="140" height="134" as="geometry" />
        </mxCell>
        <mxCell id="ma_trans-line" value="" style="line;strokeWidth=1;fillColor=none;align=left;verticalAlign=middle;spacingTop=-1;spacingLeft=3;spacingRight=3;rotatable=0;labelPosition=right;points=[];portConstraint=eastwest;strokeColor=inherit;" vertex="1" parent="ma_trans">
          <mxGeometry y="160" width="140" height="8" as="geometry" />
        </mxCell>
        <mxCell id="ma_trans-methods" value="+ chuanDauRa()&#xa;+ chuong()&#xa;+ add()&#xa;+ update()&#xa;+ delete()" style="text;strokeColor=none;fillColor=none;align=left;verticalAlign=top;spacingLeft=4;spacingRight=4;overflow=hidden;rotatable=0;points=[[0,0.5],[1,0.5]];portConstraint=eastwest;whiteSpace=wrap;html=1;" vertex="1" parent="ma_trans">
          <mxGeometry y="168" width="140" height="52" as="geometry" />
        </mxCell>

        <!-- GioQuyDoi -->
        <mxCell id="gio_quy_dois" value="gio_quy_dois" style="swimlane;fontStyle=1;align=center;verticalAlign=top;childLayout=stackLayout;horizontal=1;startSize=26;horizontalStack=0;resizeParent=1;resizeParentMax=0;resizeLast=0;collapsible=1;marginBottom=0;whiteSpace=wrap;html=1;" vertex="1" parent="1">
          <mxGeometry x="650" y="850" width="140" height="180" as="geometry" />
        </mxCell>
        <mxCell id="gio_quy_dois-attr" value="+ id: int&#xa;+ loai_de_thi: string&#xa;+ loai_hanh_dong: string&#xa;+ gio: float&#xa;+ so_luong: int&#xa;+ able: boolean" style="text;strokeColor=none;fillColor=none;align=left;verticalAlign=top;spacingLeft=4;spacingRight=4;overflow=hidden;rotatable=0;points=[[0,0.5],[1,0.5]];portConstraint=eastwest;whiteSpace=wrap;html=1;" vertex="1" parent="gio_quy_dois">
          <mxGeometry y="26" width="140" height="94" as="geometry" />
        </mxCell>
        <mxCell id="gio_quy_dois-line" value="" style="line;strokeWidth=1;fillColor=none;align=left;verticalAlign=middle;spacingTop=-1;spacingLeft=3;spacingRight=3;rotatable=0;labelPosition=right;points=[];portConstraint=eastwest;strokeColor=inherit;" vertex="1" parent="gio_quy_dois">
          <mxGeometry y="120" width="140" height="8" as="geometry" />
        </mxCell>
        <mxCell id="gio_quy_dois-methods" value="+ add()&#xa;+ update()&#xa;+ delete()" style="text;strokeColor=none;fillColor=none;align=left;verticalAlign=top;spacingLeft=4;spacingRight=4;overflow=hidden;rotatable=0;points=[[0,0.5],[1,0.5]];portConstraint=eastwest;whiteSpace=wrap;html=1;" vertex="1" parent="gio_quy_dois">
          <mxGeometry y="128" width="140" height="52" as="geometry" />
        </mxCell>

        <!-- ThongBao -->
        <mxCell id="thong_baos" value="thong_baos" style="swimlane;fontStyle=1;align=center;verticalAlign=top;childLayout=stackLayout;horizontal=1;startSize=26;horizontalStack=0;resizeParent=1;resizeParentMax=0;resizeLast=0;collapsible=1;marginBottom=0;whiteSpace=wrap;html=1;" vertex="1" parent="1">
          <mxGeometry x="850" y="850" width="140" height="170" as="geometry" />
        </mxCell>
        <mxCell id="thong_baos-attr" value="+ id: int&#xa;+ title: string&#xa;+ content: text&#xa;+ files: string&#xa;+ able: boolean" style="text;strokeColor=none;fillColor=none;align=left;verticalAlign=top;spacingLeft=4;spacingRight=4;overflow=hidden;rotatable=0;points=[[0,0.5],[1,0.5]];portConstraint=eastwest;whiteSpace=wrap;html=1;" vertex="1" parent="thong_baos">
          <mxGeometry y="26" width="140" height="74" as="geometry" />
        </mxCell>
        <mxCell id="thong_baos-line" value="" style="line;strokeWidth=1;fillColor=none;align=left;verticalAlign=middle;spacingTop=-1;spacingLeft=3;spacingRight=3;rotatable=0;labelPosition=right;points=[];portConstraint=eastwest;strokeColor=inherit;" vertex="1" parent="thong_baos">
          <mxGeometry y="100" width="140" height="8" as="geometry" />
        </mxCell>
        <mxCell id="thong_baos-methods" value="+ add()&#xa;+ update()&#xa;+ delete()" style="text;strokeColor=none;fillColor=none;align=left;verticalAlign=top;spacingLeft=4;spacingRight=4;overflow=hidden;rotatable=0;points=[[0,0.5],[1,0.5]];portConstraint=eastwest;whiteSpace=wrap;html=1;" vertex="1" parent="thong_baos">
          <mxGeometry y="108" width="140" height="62" as="geometry" />
        </mxCell>

        <!-- Additional Relationships -->
        <!-- HocPhan -> BacDaoTao (n:1) -->
        <mxCell id="rel12" value="" style="endArrow=none;html=1;rounded=0;exitX=1;exitY=0.5;exitDx=0;exitDy=0;entryX=0;entryY=0.5;entryDx=0;entryDy=0;" edge="1" parent="1" source="hoc_phans-attr" target="bac_dao_taos-attr">
          <mxGeometry relative="1" as="geometry" />
        </mxCell>
        <mxCell id="rel12-n" value="0..*" style="edgeLabel;resizable=0;html=1;align=left;verticalAlign=bottom;" connectable="0" vertex="1" parent="rel12">
          <mxGeometry x="-1" relative="1" as="geometry" />
        </mxCell>
        <mxCell id="rel12-1" value="1" style="edgeLabel;resizable=0;html=1;align=right;verticalAlign=bottom;" connectable="0" vertex="1" parent="rel12">
          <mxGeometry x="1" relative="1" as="geometry" />
        </mxCell>

        <!-- User -> ChucVu (n:1) -->
        <mxCell id="rel13" value="" style="endArrow=none;html=1;rounded=0;exitX=0;exitY=1;exitDx=0;exitDy=0;entryX=1;entryY=0;entryDx=0;entryDy=0;" edge="1" parent="1" source="users" target="chuc_vus">
          <mxGeometry relative="1" as="geometry" />
        </mxCell>
        <mxCell id="rel13-n" value="0..*" style="edgeLabel;resizable=0;html=1;align=left;verticalAlign=bottom;" connectable="0" vertex="1" parent="rel13">
          <mxGeometry x="-1" relative="1" as="geometry" />
        </mxCell>
        <mxCell id="rel13-1" value="1" style="edgeLabel;resizable=0;html=1;align=right;verticalAlign=bottom;" connectable="0" vertex="1" parent="rel13">
          <mxGeometry x="1" relative="1" as="geometry" />
        </mxCell>

        <!-- CauHoi -> DapAn (1:n) -->
        <mxCell id="rel14" value="" style="endArrow=none;html=1;rounded=0;exitX=1;exitY=0.5;exitDx=0;exitDy=0;entryX=0;entryY=0.5;entryDx=0;entryDy=0;" edge="1" parent="1" source="cau_hois-attr" target="dap_ans-attr">
          <mxGeometry relative="1" as="geometry" />
        </mxCell>
        <mxCell id="rel14-1" value="1" style="edgeLabel;resizable=0;html=1;align=left;verticalAlign=bottom;" connectable="0" vertex="1" parent="rel14">
          <mxGeometry x="-1" relative="1" as="geometry" />
        </mxCell>
        <mxCell id="rel14-n" value="0..*" style="edgeLabel;resizable=0;html=1;align=right;verticalAlign=bottom;" connectable="0" vertex="1" parent="rel14">
          <mxGeometry x="1" relative="1" as="geometry" />
        </mxCell>

        <!-- BienBanHop -> DSHop (1:n) -->
        <mxCell id="rel15" value="" style="endArrow=none;html=1;rounded=0;exitX=0;exitY=1;exitDx=0;exitDy=0;entryX=1;entryY=0;entryDx=0;entryDy=0;" edge="1" parent="1" source="bien_ban_hops" target="ds_hops">
          <mxGeometry relative="1" as="geometry" />
        </mxCell>
        <mxCell id="rel15-1" value="1" style="edgeLabel;resizable=0;html=1;align=left;verticalAlign=bottom;" connectable="0" vertex="1" parent="rel15">
          <mxGeometry x="-1" relative="1" as="geometry" />
        </mxCell>
        <mxCell id="rel15-n" value="0..*" style="edgeLabel;resizable=0;html=1;align=right;verticalAlign=bottom;" connectable="0" vertex="1" parent="rel15">
          <mxGeometry x="1" relative="1" as="geometry" />
        </mxCell>

        <!-- NhiemVu -> DSHop (1:n) -->
        <mxCell id="rel16" value="" style="endArrow=none;html=1;rounded=0;exitX=0;exitY=0.5;exitDx=0;exitDy=0;entryX=1;entryY=0.5;entryDx=0;entryDy=0;" edge="1" parent="1" source="nhiem_vus-attr" target="ds_hops-attr">
          <mxGeometry relative="1" as="geometry" />
        </mxCell>
        <mxCell id="rel16-1" value="1" style="edgeLabel;resizable=0;html=1;align=left;verticalAlign=bottom;" connectable="0" vertex="1" parent="rel16">
          <mxGeometry x="-1" relative="1" as="geometry" />
        </mxCell>
        <mxCell id="rel16-n" value="0..*" style="edgeLabel;resizable=0;html=1;align=right;verticalAlign=bottom;" connectable="0" vertex="1" parent="rel16">
          <mxGeometry x="1" relative="1" as="geometry" />
        </mxCell>

        <!-- CTDSDangKy -> DSGVBienSoan (1:n) -->
        <mxCell id="rel17" value="" style="endArrow=none;html=1;rounded=0;exitX=0.5;exitY=1;exitDx=0;exitDy=0;entryX=0.5;entryY=0;entryDx=0;entryDy=0;" edge="1" parent="1" source="ct_ds_dang_kies" target="ds_gv_bien_soans">
          <mxGeometry relative="1" as="geometry" />
        </mxCell>
        <mxCell id="rel17-1" value="1" style="edgeLabel;resizable=0;html=1;align=left;verticalAlign=bottom;" connectable="0" vertex="1" parent="rel17">
          <mxGeometry x="-1" relative="1" as="geometry" />
        </mxCell>
        <mxCell id="rel17-n" value="0..*" style="edgeLabel;resizable=0;html=1;align=right;verticalAlign=bottom;" connectable="0" vertex="1" parent="rel17">
          <mxGeometry x="1" relative="1" as="geometry" />
        </mxCell>

        <!-- Chuong -> MaTran (1:n) -->
        <mxCell id="rel18" value="" style="endArrow=none;html=1;rounded=0;exitX=1;exitY=1;exitDx=0;exitDy=0;entryX=0;entryY=0;entryDx=0;entryDy=0;" edge="1" parent="1" source="chuongs" target="ma_trans">
          <mxGeometry relative="1" as="geometry" />
        </mxCell>
        <mxCell id="rel18-1" value="1" style="edgeLabel;resizable=0;html=1;align=left;verticalAlign=bottom;" connectable="0" vertex="1" parent="rel18">
          <mxGeometry x="-1" relative="1" as="geometry" />
        </mxCell>
        <mxCell id="rel18-n" value="0..*" style="edgeLabel;resizable=0;html=1;align=right;verticalAlign=bottom;" connectable="0" vertex="1" parent="rel18">
          <mxGeometry x="1" relative="1" as="geometry" />
        </mxCell>

        <!-- ChuanDauRa -> MaTran (1:n) -->
        <mxCell id="rel19" value="" style="endArrow=none;html=1;rounded=0;exitX=0.5;exitY=1;exitDx=0;exitDy=0;entryX=0.5;entryY=0;entryDx=0;entryDy=0;" edge="1" parent="1" source="chuan_dau_ras" target="ma_trans">
          <mxGeometry relative="1" as="geometry" />
        </mxCell>
        <mxCell id="rel19-1" value="1" style="edgeLabel;resizable=0;html=1;align=left;verticalAlign=bottom;" connectable="0" vertex="1" parent="rel19">
          <mxGeometry x="-1" relative="1" as="geometry" />
        </mxCell>
        <mxCell id="rel19-n" value="0..*" style="edgeLabel;resizable=0;html=1;align=right;verticalAlign=bottom;" connectable="0" vertex="1" parent="rel19">
          <mxGeometry x="1" relative="1" as="geometry" />
        </mxCell>

        <!-- Permission -->
        <mxCell id="permissions" value="permissions" style="swimlane;fontStyle=1;align=center;verticalAlign=top;childLayout=stackLayout;horizontal=1;startSize=26;horizontalStack=0;resizeParent=1;resizeParentMax=0;resizeLast=0;collapsible=1;marginBottom=0;whiteSpace=wrap;html=1;" vertex="1" parent="1">
          <mxGeometry x="1100" y="50" width="140" height="160" as="geometry" />
        </mxCell>
        <mxCell id="permissions-attr" value="+ id: int&#xa;+ name: string&#xa;+ guard_name: string&#xa;+ created_at: timestamp&#xa;+ updated_at: timestamp" style="text;strokeColor=none;fillColor=none;align=left;verticalAlign=top;spacingLeft=4;spacingRight=4;overflow=hidden;rotatable=0;points=[[0,0.5],[1,0.5]];portConstraint=eastwest;whiteSpace=wrap;html=1;" vertex="1" parent="permissions">
          <mxGeometry y="26" width="140" height="74" as="geometry" />
        </mxCell>
        <mxCell id="permissions-line" value="" style="line;strokeWidth=1;fillColor=none;align=left;verticalAlign=middle;spacingTop=-1;spacingLeft=3;spacingRight=3;rotatable=0;labelPosition=right;points=[];portConstraint=eastwest;strokeColor=inherit;" vertex="1" parent="permissions">
          <mxGeometry y="100" width="140" height="8" as="geometry" />
        </mxCell>
        <mxCell id="permissions-methods" value="+ roles()&#xa;+ users()&#xa;+ add()&#xa;+ update()&#xa;+ delete()" style="text;strokeColor=none;fillColor=none;align=left;verticalAlign=top;spacingLeft=4;spacingRight=4;overflow=hidden;rotatable=0;points=[[0,0.5],[1,0.5]];portConstraint=eastwest;whiteSpace=wrap;html=1;" vertex="1" parent="permissions">
          <mxGeometry y="108" width="140" height="52" as="geometry" />
        </mxCell>

        <!-- Role -->
        <mxCell id="roles" value="roles" style="swimlane;fontStyle=1;align=center;verticalAlign=top;childLayout=stackLayout;horizontal=1;startSize=26;horizontalStack=0;resizeParent=1;resizeParentMax=0;resizeLast=0;collapsible=1;marginBottom=0;whiteSpace=wrap;html=1;" vertex="1" parent="1">
          <mxGeometry x="1100" y="250" width="140" height="160" as="geometry" />
        </mxCell>
        <mxCell id="roles-attr" value="+ id: int&#xa;+ name: string&#xa;+ guard_name: string&#xa;+ created_at: timestamp&#xa;+ updated_at: timestamp" style="text;strokeColor=none;fillColor=none;align=left;verticalAlign=top;spacingLeft=4;spacingRight=4;overflow=hidden;rotatable=0;points=[[0,0.5],[1,0.5]];portConstraint=eastwest;whiteSpace=wrap;html=1;" vertex="1" parent="roles">
          <mxGeometry y="26" width="140" height="74" as="geometry" />
        </mxCell>
        <mxCell id="roles-line" value="" style="line;strokeWidth=1;fillColor=none;align=left;verticalAlign=middle;spacingTop=-1;spacingLeft=3;spacingRight=3;rotatable=0;labelPosition=right;points=[];portConstraint=eastwest;strokeColor=inherit;" vertex="1" parent="roles">
          <mxGeometry y="100" width="140" height="8" as="geometry" />
        </mxCell>
        <mxCell id="roles-methods" value="+ permissions()&#xa;+ users()&#xa;+ add()&#xa;+ update()&#xa;+ delete()" style="text;strokeColor=none;fillColor=none;align=left;verticalAlign=top;spacingLeft=4;spacingRight=4;overflow=hidden;rotatable=0;points=[[0,0.5],[1,0.5]];portConstraint=eastwest;whiteSpace=wrap;html=1;" vertex="1" parent="roles">
          <mxGeometry y="108" width="140" height="52" as="geometry" />
        </mxCell>

        <!-- ModelHasPermissions -->
        <mxCell id="model_has_permissions" value="model_has_permissions" style="swimlane;fontStyle=1;align=center;verticalAlign=top;childLayout=stackLayout;horizontal=1;startSize=26;horizontalStack=0;resizeParent=1;resizeParentMax=0;resizeLast=0;collapsible=1;marginBottom=0;whiteSpace=wrap;html=1;" vertex="1" parent="1">
          <mxGeometry x="1300" y="50" width="160" height="140" as="geometry" />
        </mxCell>
        <mxCell id="model_has_permissions-attr" value="+ permission_id: int&#xa;+ model_type: string&#xa;+ model_id: string" style="text;strokeColor=none;fillColor=none;align=left;verticalAlign=top;spacingLeft=4;spacingRight=4;overflow=hidden;rotatable=0;points=[[0,0.5],[1,0.5]];portConstraint=eastwest;whiteSpace=wrap;html=1;" vertex="1" parent="model_has_permissions">
          <mxGeometry y="26" width="160" height="54" as="geometry" />
        </mxCell>
        <mxCell id="model_has_permissions-line" value="" style="line;strokeWidth=1;fillColor=none;align=left;verticalAlign=middle;spacingTop=-1;spacingLeft=3;spacingRight=3;rotatable=0;labelPosition=right;points=[];portConstraint=eastwest;strokeColor=inherit;" vertex="1" parent="model_has_permissions">
          <mxGeometry y="80" width="160" height="8" as="geometry" />
        </mxCell>
        <mxCell id="model_has_permissions-methods" value="+ permission()&#xa;+ model()" style="text;strokeColor=none;fillColor=none;align=left;verticalAlign=top;spacingLeft=4;spacingRight=4;overflow=hidden;rotatable=0;points=[[0,0.5],[1,0.5]];portConstraint=eastwest;whiteSpace=wrap;html=1;" vertex="1" parent="model_has_permissions">
          <mxGeometry y="88" width="160" height="52" as="geometry" />
        </mxCell>

        <!-- ModelHasRoles -->
        <mxCell id="model_has_roles" value="model_has_roles" style="swimlane;fontStyle=1;align=center;verticalAlign=top;childLayout=stackLayout;horizontal=1;startSize=26;horizontalStack=0;resizeParent=1;resizeParentMax=0;resizeLast=0;collapsible=1;marginBottom=0;whiteSpace=wrap;html=1;" vertex="1" parent="1">
          <mxGeometry x="1300" y="250" width="160" height="140" as="geometry" />
        </mxCell>
        <mxCell id="model_has_roles-attr" value="+ role_id: int&#xa;+ model_type: string&#xa;+ model_id: string" style="text;strokeColor=none;fillColor=none;align=left;verticalAlign=top;spacingLeft=4;spacingRight=4;overflow=hidden;rotatable=0;points=[[0,0.5],[1,0.5]];portConstraint=eastwest;whiteSpace=wrap;html=1;" vertex="1" parent="model_has_roles">
          <mxGeometry y="26" width="160" height="54" as="geometry" />
        </mxCell>
        <mxCell id="model_has_roles-line" value="" style="line;strokeWidth=1;fillColor=none;align=left;verticalAlign=middle;spacingTop=-1;spacingLeft=3;spacingRight=3;rotatable=0;labelPosition=right;points=[];portConstraint=eastwest;strokeColor=inherit;" vertex="1" parent="model_has_roles">
          <mxGeometry y="80" width="160" height="8" as="geometry" />
        </mxCell>
        <mxCell id="model_has_roles-methods" value="+ role()&#xa;+ model()" style="text;strokeColor=none;fillColor=none;align=left;verticalAlign=top;spacingLeft=4;spacingRight=4;overflow=hidden;rotatable=0;points=[[0,0.5],[1,0.5]];portConstraint=eastwest;whiteSpace=wrap;html=1;" vertex="1" parent="model_has_roles">
          <mxGeometry y="88" width="160" height="52" as="geometry" />
        </mxCell>

        <!-- RoleHasPermissions -->
        <mxCell id="role_has_permissions" value="role_has_permissions" style="swimlane;fontStyle=1;align=center;verticalAlign=top;childLayout=stackLayout;horizontal=1;startSize=26;horizontalStack=0;resizeParent=1;resizeParentMax=0;resizeLast=0;collapsible=1;marginBottom=0;whiteSpace=wrap;html=1;" vertex="1" parent="1">
          <mxGeometry x="1300" y="450" width="160" height="140" as="geometry" />
        </mxCell>
        <mxCell id="role_has_permissions-attr" value="+ permission_id: int&#xa;+ role_id: int" style="text;strokeColor=none;fillColor=none;align=left;verticalAlign=top;spacingLeft=4;spacingRight=4;overflow=hidden;rotatable=0;points=[[0,0.5],[1,0.5]];portConstraint=eastwest;whiteSpace=wrap;html=1;" vertex="1" parent="role_has_permissions">
          <mxGeometry y="26" width="160" height="34" as="geometry" />
        </mxCell>
        <mxCell id="role_has_permissions-line" value="" style="line;strokeWidth=1;fillColor=none;align=left;verticalAlign=middle;spacingTop=-1;spacingLeft=3;spacingRight=3;rotatable=0;labelPosition=right;points=[];portConstraint=eastwest;strokeColor=inherit;" vertex="1" parent="role_has_permissions">
          <mxGeometry y="60" width="160" height="8" as="geometry" />
        </mxCell>
        <mxCell id="role_has_permissions-methods" value="+ permission()&#xa;+ role()&#xa;+ add()&#xa;+ delete()" style="text;strokeColor=none;fillColor=none;align=left;verticalAlign=top;spacingLeft=4;spacingRight=4;overflow=hidden;rotatable=0;points=[[0,0.5],[1,0.5]];portConstraint=eastwest;whiteSpace=wrap;html=1;" vertex="1" parent="role_has_permissions">
          <mxGeometry y="68" width="160" height="72" as="geometry" />
        </mxCell>

        <!-- Permission Relationships -->
        <!-- Permission -> ModelHasPermissions (1:n) -->
        <mxCell id="rel20" value="" style="endArrow=none;html=1;rounded=0;exitX=1;exitY=0.5;exitDx=0;exitDy=0;entryX=0;entryY=0.5;entryDx=0;entryDy=0;" edge="1" parent="1" source="permissions-attr" target="model_has_permissions-attr">
          <mxGeometry relative="1" as="geometry" />
        </mxCell>
        <mxCell id="rel20-1" value="1" style="edgeLabel;resizable=0;html=1;align=left;verticalAlign=bottom;" connectable="0" vertex="1" parent="rel20">
          <mxGeometry x="-1" relative="1" as="geometry" />
        </mxCell>
        <mxCell id="rel20-n" value="0..*" style="edgeLabel;resizable=0;html=1;align=right;verticalAlign=bottom;" connectable="0" vertex="1" parent="rel20">
          <mxGeometry x="1" relative="1" as="geometry" />
        </mxCell>

        <!-- Role -> ModelHasRoles (1:n) -->
        <mxCell id="rel21" value="" style="endArrow=none;html=1;rounded=0;exitX=1;exitY=0.5;exitDx=0;exitDy=0;entryX=0;entryY=0.5;entryDx=0;entryDy=0;" edge="1" parent="1" source="roles-attr" target="model_has_roles-attr">
          <mxGeometry relative="1" as="geometry" />
        </mxCell>
        <mxCell id="rel21-1" value="1" style="edgeLabel;resizable=0;html=1;align=left;verticalAlign=bottom;" connectable="0" vertex="1" parent="rel21">
          <mxGeometry x="-1" relative="1" as="geometry" />
        </mxCell>
        <mxCell id="rel21-n" value="0..*" style="edgeLabel;resizable=0;html=1;align=right;verticalAlign=bottom;" connectable="0" vertex="1" parent="rel21">
          <mxGeometry x="1" relative="1" as="geometry" />
        </mxCell>

        <!-- Permission -> RoleHasPermissions (1:n) -->
        <mxCell id="rel22" value="" style="endArrow=none;html=1;rounded=0;exitX=0.5;exitY=1;exitDx=0;exitDy=0;entryX=0;entryY=0;entryDx=0;entryDy=0;" edge="1" parent="1" source="permissions" target="role_has_permissions">
          <mxGeometry relative="1" as="geometry" />
        </mxCell>
        <mxCell id="rel22-1" value="1" style="edgeLabel;resizable=0;html=1;align=left;verticalAlign=bottom;" connectable="0" vertex="1" parent="rel22">
          <mxGeometry x="-1" relative="1" as="geometry" />
        </mxCell>
        <mxCell id="rel22-n" value="0..*" style="edgeLabel;resizable=0;html=1;align=right;verticalAlign=bottom;" connectable="0" vertex="1" parent="rel22">
          <mxGeometry x="1" relative="1" as="geometry" />
        </mxCell>

        <!-- Role -> RoleHasPermissions (1:n) -->
        <mxCell id="rel23" value="" style="endArrow=none;html=1;rounded=0;exitX=0.5;exitY=1;exitDx=0;exitDy=0;entryX=0;entryY=0.5;entryDx=0;entryDy=0;" edge="1" parent="1" source="roles" target="role_has_permissions-attr">
          <mxGeometry relative="1" as="geometry" />
        </mxCell>
        <mxCell id="rel23-1" value="1" style="edgeLabel;resizable=0;html=1;align=left;verticalAlign=bottom;" connectable="0" vertex="1" parent="rel23">
          <mxGeometry x="-1" relative="1" as="geometry" />
        </mxCell>
        <mxCell id="rel23-n" value="0..*" style="edgeLabel;resizable=0;html=1;align=right;verticalAlign=bottom;" connectable="0" vertex="1" parent="rel23">
          <mxGeometry x="1" relative="1" as="geometry" />
        </mxCell>

        <!-- User -> ModelHasPermissions (1:n) -->
        <mxCell id="rel24" value="" style="endArrow=none;html=1;rounded=0;exitX=1;exitY=0;exitDx=0;exitDy=0;entryX=0;entryY=1;entryDx=0;entryDy=0;" edge="1" parent="1" source="users" target="model_has_permissions">
          <mxGeometry relative="1" as="geometry" />
        </mxCell>
        <mxCell id="rel24-1" value="1" style="edgeLabel;resizable=0;html=1;align=left;verticalAlign=bottom;" connectable="0" vertex="1" parent="rel24">
          <mxGeometry x="-1" relative="1" as="geometry" />
        </mxCell>
        <mxCell id="rel24-n" value="0..*" style="edgeLabel;resizable=0;html=1;align=right;verticalAlign=bottom;" connectable="0" vertex="1" parent="rel24">
          <mxGeometry x="1" relative="1" as="geometry" />
        </mxCell>

        <!-- User -> ModelHasRoles (1:n) -->
        <mxCell id="rel25" value="" style="endArrow=none;html=1;rounded=0;exitX=1;exitY=0.25;exitDx=0;exitDy=0;entryX=0;entryY=1;entryDx=0;entryDy=0;" edge="1" parent="1" source="users" target="model_has_roles">
          <mxGeometry relative="1" as="geometry" />
        </mxCell>
        <mxCell id="rel25-1" value="1" style="edgeLabel;resizable=0;html=1;align=left;verticalAlign=bottom;" connectable="0" vertex="1" parent="rel25">
          <mxGeometry x="-1" relative="1" as="geometry" />
        </mxCell>
        <mxCell id="rel25-n" value="0..*" style="edgeLabel;resizable=0;html=1;align=right;verticalAlign=bottom;" connectable="0" vertex="1" parent="rel25">
          <mxGeometry x="1" relative="1" as="geometry" />
        </mxCell>

      </root>
    </mxGraphModel>
  </diagram>
</mxfile>
